<svg width="48" height="48" viewBox="0 0 48 48" fill="none" xmlns="http://www.w3.org/2000/svg">
<path d="M29.0554 13.2507C29.0554 16.0375 26.7879 18.306 24.0001 18.306C21.2124 18.306 18.9448 16.0375 18.9448 13.2507C18.9448 10.4629 21.2124 8.19446 24.0001 8.19446C26.7879 8.19446 29.0554 10.4629 29.0554 13.2507Z" fill="url(#paint0_linear_5042_385)"/>
<path d="M34.8575 5.26144C32.2751 1.96753 28.22 0 23.9999 0C19.7799 0 15.7248 1.96753 13.1424 5.26144C10.2299 8.97619 9.70878 13.4531 11.2395 17.8279C12.7112 22.0339 15.8364 25.5406 18.3916 29.155C19.6046 30.8714 21.6771 33.8025 22.9341 35.5817C23.4544 36.3175 24.5455 36.3175 25.0657 35.5817C26.3227 33.8026 28.3952 30.8714 29.6082 29.155C32.1634 25.5405 35.2887 22.0338 36.7602 17.8279C38.2911 13.4531 37.7699 8.97628 34.8575 5.26144ZM23.9999 21.118C19.6617 21.118 16.1325 17.5888 16.1325 13.2507C16.1325 8.91262 19.6617 5.38237 23.9999 5.38237C28.3381 5.38237 31.8673 8.91253 31.8673 13.2507C31.8673 17.5889 28.3381 21.118 23.9999 21.118Z" fill="url(#paint1_linear_5042_385)"/>
<path d="M38.0043 38.6356C38.0043 39.1184 37.7568 39.5665 37.349 39.8242L24.7508 47.7824C24.5212 47.9278 24.2606 47.9999 24 47.9999C23.7394 47.9999 23.4788 47.9278 23.2491 47.7824L10.6508 39.8242C10.2431 39.5664 9.99561 39.1184 9.99561 38.6356C9.99561 38.1529 10.2431 37.7048 10.6508 37.4471L17.6727 33.0115L20.6376 37.2053C21.4082 38.2945 22.6652 38.9459 24 38.9459C25.3348 38.9459 26.5918 38.2945 27.3623 37.2053L29.2736 34.501L30.3263 33.0115L37.3491 37.4471C37.7569 37.7048 38.0043 38.1528 38.0043 38.6356Z" fill="url(#paint2_linear_5042_385)"/>
<defs>
<linearGradient id="paint0_linear_5042_385" x1="18.9448" y1="13.2502" x2="29.0554" y2="13.2502" gradientUnits="userSpaceOnUse">
<stop stop-color="#EA0068"/>
<stop offset="1" stop-color="#F500CD" stop-opacity="0.960784"/>
</linearGradient>
<linearGradient id="paint1_linear_5042_385" x1="10.3999" y1="18.0668" x2="37.5999" y2="18.0668" gradientUnits="userSpaceOnUse">
<stop stop-color="#EA0068"/>
<stop offset="1" stop-color="#F500CD" stop-opacity="0.960784"/>
</linearGradient>
<linearGradient id="paint2_linear_5042_385" x1="9.99561" y1="40.5057" x2="38.0043" y2="40.5057" gradientUnits="userSpaceOnUse">
<stop stop-color="#EA0068"/>
<stop offset="1" stop-color="#F500CD" stop-opacity="0.960784"/>
</linearGradient>
</defs>
</svg>
