<svg width="17" height="16" viewBox="0 0 17 16" fill="none" xmlns="http://www.w3.org/2000/svg">
<g clip-path="url(#clip0_5039_60)">
<path fill-rule="evenodd" clip-rule="evenodd" d="M8.3335 0C3.91818 0 0.333496 3.58469 0.333496 8C0.333496 12.4153 3.91818 16 8.3335 16C12.7488 16 16.3335 12.4153 16.3335 8C16.3335 3.58469 12.7488 0 8.3335 0ZM11.771 8.96875C12.0279 8.96875 12.2743 8.86669 12.456 8.685C12.6377 8.50334 12.7397 8.25694 12.7397 8C12.7397 7.46497 12.306 7.03125 11.771 7.03125H4.896C4.63906 7.03125 4.39265 7.13331 4.211 7.315C4.02931 7.49666 3.92725 7.74306 3.92725 8C3.92725 8.53503 4.36096 8.96875 4.896 8.96875H11.771Z" fill="#E9005C"/>
</g>
<defs>
<clipPath id="clip0_5039_60">
<rect width="16" height="16" fill="white" transform="translate(0.333496)"/>
</clipPath>
</defs>
</svg>
