<svg width="49" height="48" viewBox="0 0 49 48" fill="none" xmlns="http://www.w3.org/2000/svg">
<g clip-path="url(#clip0_5042_374)">
<path d="M8.80368 22.6719C7.80307 23.6725 7.80307 25.3009 8.80368 26.3114C9.8043 27.312 11.4327 27.312 12.4432 26.3114C19.369 19.3855 30.6406 19.3855 37.5664 26.3114C38.0667 26.8117 38.724 27.0667 39.3812 27.0667C40.0385 27.0667 40.6958 26.8117 41.1961 26.3114C42.1967 25.3107 42.1967 23.6823 41.1961 22.6719C32.269 13.735 17.7307 13.735 8.80368 22.6719Z" fill="url(#paint0_linear_5042_374)"/>
<path d="M15.749 29.6174C14.7484 30.618 14.7484 32.2464 15.749 33.2569C16.7496 34.2575 18.3781 34.2575 19.3885 33.2569C22.4786 30.1569 27.5209 30.1569 30.611 33.2569C31.1113 33.7572 31.7686 34.0122 32.4259 34.0122C33.0831 34.0122 33.7404 33.7572 34.2407 33.2569C35.2413 32.2562 35.2413 30.6278 34.2407 29.6272C29.1494 24.5162 20.8502 24.5162 15.749 29.6174Z" fill="url(#paint1_linear_5042_374)"/>
<path d="M24.9998 42.282C26.8907 42.282 28.4235 40.7492 28.4235 38.8584C28.4235 36.9675 26.8907 35.4347 24.9998 35.4347C23.109 35.4347 21.5762 36.9675 21.5762 38.8584C21.5762 40.7492 23.109 42.282 24.9998 42.282Z" fill="url(#paint2_linear_5042_374)"/>
<path d="M48.2495 15.6088C35.428 2.79706 14.572 2.79706 1.75046 15.6088C0.749847 16.6094 0.749847 18.2379 1.75046 19.2483C2.75107 20.2489 4.37952 20.2489 5.38995 19.2483C16.2005 8.42796 33.7995 8.42796 44.6199 19.2483C45.1202 19.7486 45.7774 20.0037 46.4347 20.0037C47.092 20.0037 47.7492 19.7486 48.2495 19.2483C49.2502 18.2477 49.2502 16.6193 48.2495 15.6088Z" fill="url(#paint3_linear_5042_374)"/>
</g>
<defs>
<linearGradient id="paint0_linear_5042_374" x1="8.05322" y1="21.518" x2="41.9465" y2="21.518" gradientUnits="userSpaceOnUse">
<stop stop-color="#EA0068"/>
<stop offset="1" stop-color="#F500CD" stop-opacity="0.960784"/>
</linearGradient>
<linearGradient id="paint1_linear_5042_374" x1="14.9985" y1="29.9025" x2="34.9912" y2="29.9025" gradientUnits="userSpaceOnUse">
<stop stop-color="#EA0068"/>
<stop offset="1" stop-color="#F500CD" stop-opacity="0.960784"/>
</linearGradient>
<linearGradient id="paint2_linear_5042_374" x1="21.5762" y1="38.8584" x2="28.4235" y2="38.8584" gradientUnits="userSpaceOnUse">
<stop stop-color="#EA0068"/>
<stop offset="1" stop-color="#F500CD" stop-opacity="0.960784"/>
</linearGradient>
<linearGradient id="paint3_linear_5042_374" x1="1" y1="13.0018" x2="49" y2="13.0018" gradientUnits="userSpaceOnUse">
<stop stop-color="#EA0068"/>
<stop offset="1" stop-color="#F500CD" stop-opacity="0.960784"/>
</linearGradient>
<clipPath id="clip0_5042_374">
<rect width="48" height="48" fill="white" transform="translate(0.666504)"/>
</clipPath>
</defs>
</svg>
