<svg width="48" height="48" viewBox="0 0 48 48" fill="none" xmlns="http://www.w3.org/2000/svg">
<g clip-path="url(#clip0_5064_200)">
<path fill-rule="evenodd" clip-rule="evenodd" d="M24 0C37.2553 0 48 10.7447 48 24C48 37.2553 37.2553 48 24 48C10.7447 48 0 37.2553 0 24C0 10.7447 10.7447 0 24 0ZM18.9788 11.8941C14.4637 12.1003 12.0919 14.6409 11.895 18.9788C11.745 22.2628 11.745 25.7372 11.895 29.0212C12.0919 33.3591 14.4637 35.8997 18.9788 36.1059C22.2638 36.255 25.7372 36.255 29.0222 36.1059C33.36 35.9072 35.8997 33.5391 36.1059 29.0212C36.255 25.7362 36.255 22.2647 36.1059 18.9788C35.9034 14.5575 33.4434 12.0966 29.0222 11.8941C25.7372 11.745 22.2638 11.745 18.9788 11.8941ZM28.9219 14.0869C32.2022 14.2359 33.765 15.7978 33.9131 19.0791C34.0612 22.2947 34.0612 25.7053 33.9131 28.9209C33.7603 32.2969 32.1169 33.7678 28.9219 33.9131C25.7044 34.0603 22.2966 34.0603 19.0791 33.9131C15.8831 33.7678 14.2406 32.2969 14.0869 28.9209C13.9397 25.7053 13.9397 22.2947 14.0869 19.0791C14.2322 15.8822 15.7041 14.2406 19.0791 14.0869C22.2966 13.9397 25.7044 13.9397 28.9219 14.0869ZM24 28.0594C21.7584 28.0594 19.9406 26.2425 19.9406 24C19.9416 21.7575 21.7584 19.9406 24 19.9406C26.2425 19.9406 28.0603 21.7575 28.0603 24C28.0603 26.2416 26.2425 28.0594 24 28.0594ZM24 17.7459C20.5472 17.7459 17.7459 20.5462 17.7459 24C17.7459 27.4538 20.5462 30.2541 24 30.2541C27.4547 30.2541 30.2541 27.4538 30.2541 24C30.2541 20.5462 27.4547 17.7459 24 17.7459ZM31.9631 17.4984C31.9631 18.3056 31.3088 18.9609 30.5016 18.9609C29.6934 18.9609 29.04 18.3066 29.04 17.4994C29.04 16.6922 29.6934 16.0378 30.5016 16.0378C31.3088 16.0378 31.9631 16.6922 31.9631 17.4984Z" fill="black"/>
<g clip-path="url(#clip1_5064_200)">
<path fill-rule="evenodd" clip-rule="evenodd" d="M24 0C37.2553 0 48 10.7447 48 24C48 37.2553 37.2553 48 24 48C10.7447 48 0 37.2553 0 24C0 10.7447 10.7447 0 24 0ZM18.9788 11.8941C14.4637 12.1003 12.0919 14.6409 11.895 18.9788C11.745 22.2628 11.745 25.7372 11.895 29.0212C12.0919 33.3591 14.4637 35.8997 18.9788 36.1059C22.2638 36.255 25.7372 36.255 29.0222 36.1059C33.36 35.9072 35.8997 33.5391 36.1059 29.0212C36.255 25.7362 36.255 22.2647 36.1059 18.9788C35.9034 14.5575 33.4434 12.0966 29.0222 11.8941C25.7372 11.745 22.2638 11.745 18.9788 11.8941ZM28.9219 14.0869C32.2022 14.2359 33.765 15.7978 33.9131 19.0791C34.0612 22.2947 34.0612 25.7053 33.9131 28.9209C33.7603 32.2969 32.1169 33.7678 28.9219 33.9131C25.7044 34.0603 22.2966 34.0603 19.0791 33.9131C15.8831 33.7678 14.2406 32.2969 14.0869 28.9209C13.9397 25.7053 13.9397 22.2947 14.0869 19.0791C14.2322 15.8822 15.7041 14.2406 19.0791 14.0869C22.2966 13.9397 25.7044 13.9397 28.9219 14.0869ZM24 28.0594C21.7584 28.0594 19.9406 26.2425 19.9406 24C19.9416 21.7575 21.7584 19.9406 24 19.9406C26.2425 19.9406 28.0603 21.7575 28.0603 24C28.0603 26.2416 26.2425 28.0594 24 28.0594ZM24 17.7459C20.5472 17.7459 17.7459 20.5462 17.7459 24C17.7459 27.4538 20.5462 30.2541 24 30.2541C27.4547 30.2541 30.2541 27.4538 30.2541 24C30.2541 20.5462 27.4547 17.7459 24 17.7459ZM31.9631 17.4984C31.9631 18.3056 31.3088 18.9609 30.5016 18.9609C29.6934 18.9609 29.04 18.3066 29.04 17.4994C29.04 16.6922 29.6934 16.0378 30.5016 16.0378C31.3088 16.0378 31.9631 16.6922 31.9631 17.4984Z" fill="white"/>
</g>
</g>
<defs>
<clipPath id="clip0_5064_200">
<rect width="48" height="48" fill="white"/>
</clipPath>
<clipPath id="clip1_5064_200">
<rect width="48" height="48" fill="white"/>
</clipPath>
</defs>
</svg>
