<svg width="32" height="18" viewBox="0 0 32 18" fill="none" xmlns="http://www.w3.org/2000/svg">
<path d="M0.211494 9.51417L7.48405 16.7868C7.7453 17.0918 8.20442 17.1274 8.50947 16.8661C8.81453 16.6049 8.85009 16.1457 8.58879 15.8407C8.56441 15.8122 8.53791 15.7857 8.50947 15.7614L2.48052 9.7251H31.2728C31.6744 9.7251 32 9.39949 32 8.9978C32 8.59612 31.6744 8.27057 31.2728 8.27057H2.48052L8.50947 2.24161C8.81453 1.98036 8.85009 1.52125 8.58879 1.21619C8.32748 0.911133 7.86842 0.875572 7.56337 1.13688C7.53493 1.16125 7.50837 1.18775 7.48405 1.21619L0.211432 8.48881C-0.0704994 8.77237 -0.0704994 9.23049 0.211494 9.51417Z" fill="#A0A0A0"/>
</svg>
