<svg width="17" height="16" viewBox="0 0 17 16" fill="none" xmlns="http://www.w3.org/2000/svg">
<path d="M8.3335 0C6.75125 0 5.20453 0.469192 3.88894 1.34824C2.57334 2.22729 1.54796 3.47672 0.942463 4.93853C0.336962 6.40034 0.178536 8.00887 0.487217 9.56072C0.795899 11.1126 1.55783 12.538 2.67665 13.6569C3.79546 14.7757 5.22093 15.5376 6.77278 15.8463C8.32462 16.155 9.93316 15.9965 11.395 15.391C12.8568 14.7855 14.1062 13.7602 14.9853 12.4446C15.8643 11.129 16.3335 9.58225 16.3335 8C16.331 5.87903 15.4873 3.84566 13.9876 2.34591C12.4878 0.84616 10.4545 0.00250216 8.3335 0ZM11.9699 8.72727H9.06077V11.6364C9.06077 11.8292 8.98415 12.0142 8.84776 12.1506C8.71137 12.287 8.52638 12.3636 8.3335 12.3636C8.14061 12.3636 7.95563 12.287 7.81924 12.1506C7.68285 12.0142 7.60622 11.8292 7.60622 11.6364V8.72727H4.69713C4.50425 8.72727 4.31927 8.65065 4.18288 8.51426C4.04649 8.37787 3.96986 8.19288 3.96986 8C3.96986 7.80711 4.04649 7.62213 4.18288 7.48574C4.31927 7.34935 4.50425 7.27273 4.69713 7.27273H7.60622V4.36364C7.60622 4.17075 7.68285 3.98577 7.81924 3.84938C7.95563 3.71299 8.14061 3.63636 8.3335 3.63636C8.52638 3.63636 8.71137 3.71299 8.84776 3.84938C8.98415 3.98577 9.06077 4.17075 9.06077 4.36364V7.27273H11.9699C12.1627 7.27273 12.3477 7.34935 12.4841 7.48574C12.6205 7.62213 12.6971 7.80711 12.6971 8C12.6971 8.19288 12.6205 8.37787 12.4841 8.51426C12.3477 8.65065 12.1627 8.72727 11.9699 8.72727Z" fill="#E9005C"/>
</svg>
