<svg width="32" height="18" viewBox="0 0 32 18" fill="none" xmlns="http://www.w3.org/2000/svg">
<path d="M31.7885 8.48583L24.5159 1.21321C24.2547 0.90815 23.7956 0.872589 23.4905 1.1339C23.1855 1.39514 23.1499 1.85426 23.4112 2.15932C23.4356 2.18775 23.4621 2.21431 23.4905 2.23863L29.5195 8.2749H0.727237C0.325619 8.2749 0 8.60051 0 9.0022C0 9.40388 0.325619 9.72943 0.727237 9.72943H29.5195L23.4905 15.7584C23.1855 16.0196 23.1499 16.4788 23.4112 16.7838C23.6725 17.0889 24.1316 17.1244 24.4366 16.8631C24.4651 16.8387 24.4916 16.8122 24.5159 16.7838L31.7886 9.51119C32.0705 9.22763 32.0705 8.76951 31.7885 8.48583Z" fill="#0A0A0A"/>
</svg>
