<svg width="49" height="48" viewBox="0 0 49 48" fill="none" xmlns="http://www.w3.org/2000/svg">
<path d="M42.3204 36H6.34662C5.15012 35.9985 4.00306 35.5225 3.157 34.6765C2.31095 33.8304 1.83498 32.6834 1.8335 31.4869V12.0131C1.83498 10.8166 2.31095 9.66956 3.157 8.82351C4.00306 7.97746 5.15012 7.50149 6.34662 7.5H42.3204C43.5169 7.50149 44.6639 7.97746 45.51 8.82351C46.356 9.66956 46.832 10.8166 46.8335 12.0131V31.4869C46.832 32.6834 46.356 33.8304 45.51 34.6765C44.6639 35.5225 43.5169 35.9985 42.3204 36Z" fill="url(#paint0_linear_5042_395)"/>
<path d="M12.3335 39H36.3335H12.3335Z" fill="url(#paint1_linear_5042_395)"/>
<path d="M12.3335 39H36.3335" stroke="url(#paint2_linear_5042_395)" stroke-width="3" stroke-miterlimit="10" stroke-linecap="round"/>
<defs>
<linearGradient id="paint0_linear_5042_395" x1="1.8335" y1="21.75" x2="46.8335" y2="21.75" gradientUnits="userSpaceOnUse">
<stop stop-color="#EA0068"/>
<stop offset="1" stop-color="#F500CD" stop-opacity="0.960784"/>
</linearGradient>
<linearGradient id="paint1_linear_5042_395" x1="12.3335" y1="39.5" x2="36.3335" y2="39.5" gradientUnits="userSpaceOnUse">
<stop stop-color="#EA0068"/>
<stop offset="1" stop-color="#F500CD" stop-opacity="0.960784"/>
</linearGradient>
<linearGradient id="paint2_linear_5042_395" x1="12.3335" y1="39.5" x2="36.3335" y2="39.5" gradientUnits="userSpaceOnUse">
<stop stop-color="#EA0068"/>
<stop offset="1" stop-color="#F500CD" stop-opacity="0.960784"/>
</linearGradient>
</defs>
</svg>
